<svg width="21" height="20" viewBox="0 0 21 20" fill="none" xmlns="http://www.w3.org/2000/svg">
<mask id="mask0_328_5544" style="mask-type:alpha" maskUnits="userSpaceOnUse" x="0" y="0" width="21" height="20">
<rect x="0.5" width="20" height="20" fill="#D9D9D9"/>
</mask>
<g mask="url(#mask0_328_5544)">
<path d="M5.5 16.6667C4.80555 16.6667 4.21527 16.4236 3.72916 15.9375C3.24305 15.4514 2.99999 14.8611 2.99999 14.1667H1.33333V5.00001C1.33333 4.54168 1.49652 4.14932 1.82291 3.82293C2.1493 3.49654 2.54166 3.33334 2.99999 3.33334H14.6667V6.66668H17.1667L19.6667 10V14.1667H18C18 14.8611 17.7569 15.4514 17.2708 15.9375C16.7847 16.4236 16.1944 16.6667 15.5 16.6667C14.8056 16.6667 14.2153 16.4236 13.7292 15.9375C13.2431 15.4514 13 14.8611 13 14.1667H8C8 14.8611 7.75694 15.4514 7.27083 15.9375C6.78472 16.4236 6.19444 16.6667 5.5 16.6667ZM5.5 15C5.73611 15 5.93402 14.9201 6.09375 14.7604C6.25347 14.6007 6.33333 14.4028 6.33333 14.1667C6.33333 13.9306 6.25347 13.7326 6.09375 13.5729C5.93402 13.4132 5.73611 13.3333 5.5 13.3333C5.26388 13.3333 5.06597 13.4132 4.90624 13.5729C4.74652 13.7326 4.66666 13.9306 4.66666 14.1667C4.66666 14.4028 4.74652 14.6007 4.90624 14.7604C5.06597 14.9201 5.26388 15 5.5 15ZM2.99999 12.5H3.66666C3.90277 12.25 4.17361 12.0486 4.47916 11.8958C4.78472 11.7431 5.12499 11.6667 5.5 11.6667C5.875 11.6667 6.21527 11.7431 6.52083 11.8958C6.82638 12.0486 7.09722 12.25 7.33333 12.5H13V5.00001H2.99999V12.5ZM15.5 15C15.7361 15 15.934 14.9201 16.0937 14.7604C16.2535 14.6007 16.3333 14.4028 16.3333 14.1667C16.3333 13.9306 16.2535 13.7326 16.0937 13.5729C15.934 13.4132 15.7361 13.3333 15.5 13.3333C15.2639 13.3333 15.066 13.4132 14.9062 13.5729C14.7465 13.7326 14.6667 13.9306 14.6667 14.1667C14.6667 14.4028 14.7465 14.6007 14.9062 14.7604C15.066 14.9201 15.2639 15 15.5 15ZM14.6667 10.8333H18.2083L16.3333 8.33334H14.6667V10.8333Z" fill="white"/>
</g>
</svg>
