<svg width="21" height="20" viewBox="0 0 21 20" fill="none" xmlns="http://www.w3.org/2000/svg">
<mask id="mask0_328_5537" style="mask-type:alpha" maskUnits="userSpaceOnUse" x="0" y="0" width="21" height="20">
<rect x="0.5" width="20" height="20" fill="#D9D9D9"/>
</mask>
<g mask="url(#mask0_328_5537)">
<path d="M3.83333 16.6667C3.375 16.6667 2.98264 16.5035 2.65625 16.1771C2.32986 15.8507 2.16667 15.4583 2.16667 15V5.00001C2.16667 4.54168 2.32986 4.14932 2.65625 3.82293C2.98264 3.49654 3.375 3.33334 3.83333 3.33334H17.1667C17.625 3.33334 18.0174 3.49654 18.3438 3.82293C18.6701 4.14932 18.8333 4.54168 18.8333 5.00001V15C18.8333 15.4583 18.6701 15.8507 18.3438 16.1771C18.0174 16.5035 17.625 16.6667 17.1667 16.6667H3.83333ZM10.5 10.8333L3.83333 6.66668V15H17.1667V6.66668L10.5 10.8333ZM10.5 9.16668L17.1667 5.00001H3.83333L10.5 9.16668ZM3.83333 6.66668V5.00001V15V6.66668Z" fill="white"/>
</g>
</svg>
