<svg width="21" height="20" viewBox="0 0 21 20" fill="none" xmlns="http://www.w3.org/2000/svg">
<mask id="mask0_328_5530" style="mask-type:alpha" maskUnits="userSpaceOnUse" x="0" y="0" width="21" height="20">
<rect x="0.5" width="20" height="20" fill="#D9D9D9"/>
</mask>
<g mask="url(#mask0_328_5530)">
<path d="M10.5 17.5C9.45833 17.5 8.48264 17.3021 7.57292 16.9062C6.66319 16.5104 5.87153 15.9757 5.19792 15.3021C4.52431 14.6285 3.98958 13.8368 3.59375 12.9271C3.19792 12.0174 3 11.0417 3 10C3 8.95833 3.19792 7.98264 3.59375 7.07292C3.98958 6.16319 4.52431 5.37153 5.19792 4.69792C5.87153 4.02431 6.66319 3.48958 7.57292 3.09375C8.48264 2.69792 9.45833 2.5 10.5 2.5C11.6389 2.5 12.7188 2.74306 13.7396 3.22917C14.7604 3.71528 15.625 4.40278 16.3333 5.29167V3.33333H18V8.33333H13V6.66667H15.2917C14.7222 5.88889 14.0208 5.27778 13.1875 4.83333C12.3542 4.38889 11.4583 4.16667 10.5 4.16667C8.875 4.16667 7.49653 4.73264 6.36458 5.86458C5.23264 6.99653 4.66667 8.375 4.66667 10C4.66667 11.625 5.23264 13.0035 6.36458 14.1354C7.49653 15.2674 8.875 15.8333 10.5 15.8333C11.9583 15.8333 13.2326 15.3611 14.3229 14.4167C15.4132 13.4722 16.0556 12.2778 16.25 10.8333H17.9583C17.75 12.7361 16.934 14.3229 15.5104 15.5938C14.0868 16.8646 12.4167 17.5 10.5 17.5ZM12.8333 13.5L9.66667 10.3333V5.83333H11.3333V9.66667L14 12.3333L12.8333 13.5Z" fill="white"/>
</g>
</svg>
