<svg width="170" height="70" viewBox="0 0 170 70" fill="none" xmlns="http://www.w3.org/2000/svg">
<path d="M22.5841 60C20.893 58.4965 20.4565 56.3947 20.0249 54.3287C19.2572 50.6672 18.635 46.975 17.541 43.3902C17.4307 43.0322 17.3855 42.6486 17.3403 42.2753C17.245 41.4418 17.4056 41.1452 18.1984 40.9304C18.8357 40.7565 19.5031 40.6747 20.1554 40.5571C20.7876 40.4446 21.4249 40.3372 22.0572 40.2196C22.8299 40.0713 23.0909 40.1991 23.1762 40.9713C23.3769 42.7254 23.5174 44.4896 23.678 46.2488C23.7633 47.2102 23.8185 48.1767 23.9339 49.1381C23.969 49.4194 24.1547 49.6853 24.3253 50.0842C24.4307 48.7853 24.5009 47.6705 24.6063 46.5608C24.812 44.4641 25.0378 42.3725 25.2536 40.2809C25.3088 39.744 25.5748 39.4525 26.1217 39.386C27.3611 39.2377 28.5955 39.0638 29.83 38.8951C30.2765 38.8337 30.5877 39.0076 30.678 39.4371C30.9038 40.4599 31.1748 41.4827 31.2751 42.5208C31.4658 44.4487 31.5461 46.3869 31.6916 48.3199C31.7117 48.6114 31.812 48.8978 31.8722 49.1893C31.9475 49.1893 32.0178 49.1893 32.093 49.1893C32.1733 48.8825 32.2938 48.5807 32.3239 48.2637C32.5898 45.5431 32.8507 42.8174 33.0816 40.0917C33.1117 39.7337 32.9862 39.3502 32.8859 38.9973C32.7755 38.5985 32.8558 38.4297 33.2923 38.3735C34.6923 38.1945 36.0923 37.9797 37.4873 37.7649C38.2751 37.6422 38.5361 37.8109 38.4407 38.6087C38.2852 39.882 38.0594 41.1452 37.8185 42.4032C37.0407 46.4943 36.2479 50.5803 35.445 54.6662C35.3145 55.3464 35.1389 56.0214 34.9633 56.6913C34.7475 57.5147 34.2206 58.0414 33.3877 58.2204C32.7153 58.3585 32.0429 58.517 31.3654 58.5937C30.5325 58.6909 30.131 58.3431 29.9955 57.5096C29.6041 55.1674 29.2228 52.8252 28.8113 50.4882C28.7712 50.2581 28.5654 50.0586 28.435 49.8439C28.2794 50.0433 28.0285 50.2274 27.9884 50.4473C27.7877 51.6286 27.6672 52.8252 27.4615 54.0014C27.2256 55.3464 26.9396 56.6862 26.6586 58.0209C26.4429 59.0335 26.0916 59.7034 24.812 59.642C24.526 59.6267 24.24 59.6778 23.9489 59.7648C24.245 59.8415 24.536 59.9182 24.8321 60H22.579H22.5841Z" fill="white"/>
<path d="M159.995 25.8291C159.127 26.6269 158.284 27.4605 157.376 28.2173C156.653 28.8207 156.608 28.8668 156.919 29.7361C157.225 30.585 157.481 31.4544 157.772 32.3084C157.993 32.963 157.677 33.4079 157.22 33.7914C156.773 34.1699 156.287 34.2312 155.79 33.8681C154.847 33.1778 153.903 32.4874 152.91 31.7561C152.257 32.2521 151.565 32.7789 150.867 33.3005C150.601 33.4999 150.32 33.684 150.044 33.8732C149.568 34.2005 149.101 34.2619 148.619 33.8528C148.123 33.4386 147.877 32.9579 148.082 32.3033C148.358 31.4186 148.589 30.5237 148.91 29.6543C149.136 29.0509 148.986 28.6673 148.484 28.3145C147.816 27.844 147.189 27.3224 146.547 26.8212C145.995 26.3917 145.674 25.8649 145.895 25.1234C146.11 24.4024 146.692 24.1518 147.33 24.0955C148.113 24.0239 148.91 24.0444 149.698 24.0853C150.325 24.1211 150.667 23.8961 150.812 23.2671C150.968 22.592 151.168 21.9272 151.399 21.2727C151.53 20.9045 151.695 20.5158 151.941 20.2243C152.538 19.5135 153.457 19.5953 153.928 20.3982C154.169 20.8073 154.315 21.2829 154.47 21.738C154.651 22.275 154.801 22.8222 154.957 23.3694C155.103 23.8859 155.409 24.1364 155.966 24.0802C156.442 24.0342 156.924 24.07 157.401 24.0342C158.434 23.9575 159.338 24.2029 160 25.0723V25.8342L159.995 25.8291Z" fill="#FF0000"/>
<path d="M69.316 23.1341C69.3762 23.9575 69.4666 24.7859 69.4917 25.6092C69.5418 27.1281 69.577 28.6418 69.5519 30.1606C69.5519 30.4009 69.2157 30.7947 68.9798 30.8458C67.7053 31.1322 66.4106 31.3572 65.116 31.5516C64.539 31.6385 64.3683 31.2447 64.3583 30.7231C64.3282 29.0151 64.2931 27.307 64.2479 25.599C64.1576 21.9937 64.0522 18.3885 63.9669 14.7832C63.9468 13.9803 63.992 13.1825 63.982 12.3797C63.9719 11.8018 64.283 11.4796 64.7848 11.4336C66.0895 11.3211 67.3992 11.2648 68.7089 11.2086C69.1454 11.1881 69.3562 11.4643 69.4816 11.8836C70.2895 14.5582 71.1124 17.2327 71.9504 19.897C72.0558 20.2346 72.2465 20.5516 72.397 20.8789C72.4773 20.8636 72.5576 20.8482 72.6379 20.8329C72.658 20.5209 72.7232 20.209 72.6931 19.9022C72.5074 17.6981 72.3067 15.4991 72.111 13.295C72.0558 12.6865 72.0357 12.0728 71.9404 11.4694C71.8651 10.9989 72.0106 10.7995 72.4723 10.779C73.782 10.7176 75.0917 10.6358 76.4013 10.5693C76.9383 10.5438 77.134 10.9017 77.1891 11.362C77.3196 12.4512 77.4952 13.5354 77.5404 14.6246C77.6307 16.7725 77.6558 18.9254 77.696 21.0732C77.7461 23.8143 77.7612 26.5553 77.8264 29.2963C77.8415 29.9509 77.6107 30.3651 76.9934 30.5083C75.9397 30.7487 74.8909 31.0146 73.8221 31.168C73.1146 31.2703 72.7382 30.7129 72.4974 30.1197C71.9705 28.8156 71.4787 27.4963 70.9569 26.1871C70.6157 25.328 70.2694 24.474 69.9031 23.6251C69.8178 23.4256 69.6623 23.2517 69.5368 23.0676L69.301 23.129L69.316 23.1341Z" fill="white"/>
<path d="M130.831 49.4041C130.801 49.6598 130.735 49.9206 130.745 50.1763C130.811 52.1758 130.886 54.1753 130.976 56.1697C131.001 56.7578 130.72 57.0544 130.183 57.08C129.019 57.1414 127.855 57.1874 126.691 57.1874C126.044 57.1874 125.813 56.8959 125.778 56.1595C125.733 55.2952 125.718 54.431 125.697 53.5668C125.587 48.4682 125.472 43.3697 125.386 38.2661C125.361 36.9313 125.477 36.8546 126.771 36.962C127.765 37.0438 128.758 37.1615 129.757 37.2382C130.434 37.2893 130.776 37.6473 130.956 38.3019C131.659 40.8537 132.381 43.4004 133.129 45.942C133.3 46.5147 133.596 47.0517 133.837 47.6091C133.927 47.5835 134.012 47.5528 134.102 47.5273C134.062 46.8778 134.032 46.2284 133.982 45.5789C133.837 43.7532 133.676 41.9276 133.525 40.1071C133.465 39.4167 133.435 38.7212 133.345 38.0308C133.295 37.6422 133.395 37.4581 133.791 37.4939C135.116 37.6217 136.446 37.7393 137.766 37.8876C138.368 37.9541 138.513 38.4399 138.563 38.9411C138.744 40.6594 139.01 42.3725 139.045 44.0959C139.135 48.3097 139.125 52.5286 139.14 56.7425C139.14 57.8215 139.035 57.9135 137.956 57.9749C137.188 58.0209 136.421 58.0567 135.648 58.067C134.609 58.0823 134.253 57.8266 133.882 56.8192C133.084 54.6509 132.306 52.4724 131.513 50.3041C131.398 49.9819 131.227 49.6802 131.087 49.3683C131.006 49.3785 130.921 49.3938 130.841 49.4041H130.831Z" fill="white"/>
<path d="M138.804 23.8756C139.005 22.2903 138.719 20.6999 138.644 19.1197C138.568 17.5089 138.388 15.9031 138.242 14.1848C139.145 14.2411 140.029 14.282 140.907 14.3587C141.444 14.4047 141.981 14.5019 142.513 14.5786C143.1 14.6656 143.406 14.9775 143.496 15.6065C143.998 19.1658 143.993 22.7455 143.978 26.3303C143.968 28.7338 144.063 31.1373 144.098 33.5408C144.108 34.3897 143.902 34.625 143.049 34.6864C142.242 34.7477 141.429 34.7579 140.616 34.7784C139.738 34.7989 139.161 34.3744 138.864 33.5408C138.047 31.2447 137.224 28.9537 136.391 26.6627C136.3 26.4121 136.15 26.1871 136.029 25.9519C135.944 25.9723 135.859 25.9928 135.778 26.0132C135.763 26.3507 135.718 26.6883 135.733 27.0258C135.804 28.8565 135.904 30.6873 135.969 32.5181C135.999 33.413 135.799 33.6687 134.905 33.7045C133.806 33.7454 132.697 33.7045 131.599 33.6738C131.052 33.6585 130.781 33.3363 130.766 32.7738C130.69 29.9509 130.595 27.1281 130.53 24.3052C130.459 21.2266 130.419 18.1481 130.369 15.0747C130.369 14.7985 130.369 14.5275 130.389 14.2513C130.434 13.653 130.695 13.3922 131.272 13.4485C132.512 13.5712 133.751 13.7246 134.991 13.8627C135.583 13.9292 135.743 14.3843 135.879 14.8599C136.657 17.5907 137.434 20.3164 138.217 23.0421C138.302 23.3336 138.428 23.6148 138.538 23.9012C138.634 23.891 138.724 23.8807 138.819 23.8705L138.804 23.8756Z" fill="white"/>
<path d="M28.4701 23.5535C28.4701 21.0016 28.4851 18.4549 28.4601 15.9031C28.455 15.223 28.731 14.7678 29.3583 14.6604C31.1998 14.3434 33.0414 13.9292 34.893 13.8371C37.0608 13.7297 38.8973 14.7116 40.3074 16.3889C43.4637 20.1425 43.9705 25.149 41.2959 29.3935C40.1167 31.2601 38.3203 32.4158 36.3934 33.3823C34.2809 34.446 31.9826 34.671 29.6894 34.942C29.2178 34.9983 28.9819 34.7733 28.9217 34.3284C28.7712 33.2033 28.5303 32.0834 28.5002 30.9532C28.435 28.4883 28.4801 26.0235 28.4801 23.5586C28.4801 23.5586 28.4701 23.5586 28.4651 23.5586L28.4701 23.5535ZM33.5031 24.4995C33.5031 24.4995 33.4629 24.4995 33.4429 24.4995C33.4429 25.9723 33.4328 27.4451 33.4529 28.923C33.4529 29.1276 33.5984 29.3372 33.6787 29.5418C33.8794 29.46 34.1303 29.4344 34.2658 29.2912C34.9181 28.5855 35.5554 27.8593 36.1676 27.1178C37.1812 25.8956 37.5676 24.4637 37.4672 22.8887C37.3619 21.1704 36.1927 19.5902 34.6572 19.0481C33.8995 18.7822 33.5432 18.9407 33.5181 19.7027C33.4679 21.2982 33.5031 22.8989 33.5031 24.4995Z" fill="white"/>
<path d="M112.229 22.4182C112.601 19.5288 112.566 16.8185 114.071 14.4917C115.105 12.8962 116.49 11.7404 118.426 11.5256C119.044 11.4592 119.711 11.587 120.318 11.7711C123.128 12.6149 124.9 14.5582 125.667 17.3657C126.174 19.222 126.711 21.1397 126.756 23.0421C126.826 26.1257 126.239 29.1071 123.5 31.1169C122.024 32.1959 120.303 32.5385 118.562 32.6868C118.005 32.738 117.318 32.4311 116.851 32.0681C115.943 31.3675 115.125 30.5441 114.322 29.7208C113.529 28.9077 113.268 27.8082 113.022 26.7496C112.676 25.241 112.46 23.6966 112.229 22.408V22.4182ZM118.01 21.4005C118.01 22.9551 117.905 24.5149 118.452 26.0235C118.868 27.1741 119.831 27.4247 120.649 26.5195C120.84 26.3098 120.996 26.0388 121.086 25.7627C121.713 23.8961 121.974 21.9937 121.257 20.1016C120.981 19.3703 120.579 18.6595 120.107 18.0407C119.892 17.7594 119.29 17.514 118.993 17.6214C118.617 17.7594 118.336 18.2453 118.09 18.6339C117.97 18.8231 118.02 19.1248 118.015 19.3754C118.005 20.0505 118.015 20.7255 118.015 21.4005H118.01Z" fill="white"/>
<path d="M47.759 50.1098C47.7038 50.3246 47.5884 50.5445 47.5984 50.7592C47.6687 52.4008 47.749 54.0372 47.8493 55.6737C47.8794 56.1799 47.6988 56.4817 47.207 56.5891C46.1282 56.8192 45.0594 57.0749 43.9755 57.2794C43.4034 57.3868 43.0472 57.0953 42.992 56.5021C42.9267 55.7657 42.8866 55.0293 42.8766 54.2929C42.8214 51.0661 42.7913 47.8443 42.721 44.6175C42.6809 42.9146 42.5404 41.2116 42.5002 39.5036C42.4651 37.9337 42.9167 37.4018 44.4221 37.0285C46.354 36.5478 48.3009 36.3023 50.2931 36.5989C52.8572 36.9876 54.9497 38.7059 55.4716 41.0838C55.9031 43.0578 55.4615 44.8936 54.207 46.4892C53.7655 47.0466 53.2687 47.5631 52.7719 48.0745C52.4959 48.3608 52.4508 48.6012 52.6615 48.9592C53.7454 50.8308 54.8092 52.7127 55.878 54.5895C56.2443 55.2339 56.1339 55.5509 55.4364 55.6634C54.187 55.8629 52.9225 56.0112 51.668 56.1799C51.116 56.2515 50.7447 56.0163 50.5189 55.5151C49.8414 54.0014 49.164 52.4877 48.4816 50.974C48.3411 50.6621 48.1554 50.3757 47.9898 50.0791C47.9146 50.0842 47.8443 50.0944 47.769 50.0996L47.759 50.1098ZM47.5282 45.4817C48.8529 45.3999 50.273 43.2214 49.7812 42.0401C49.45 41.2372 48.7676 40.7821 47.9948 40.4701C47.6436 40.327 47.5332 40.5673 47.5332 40.8486C47.5232 42.3776 47.5332 43.9118 47.5332 45.4817H47.5282Z" fill="white"/>
<path d="M52.1748 18.4191C52.2651 20.3522 52.3303 22.2903 52.4608 24.2234C52.4909 24.699 52.5361 25.3331 53.1483 25.4405C53.7805 25.553 54.1318 25.016 54.3726 24.5404C54.5733 24.1416 54.6988 23.6609 54.6988 23.2159C54.6938 19.9277 54.6486 16.6395 54.6085 13.3513C54.6085 13.203 54.5884 13.0547 54.5683 12.9115C54.4178 11.8171 54.4178 11.8274 55.5368 11.7916C56.5755 11.7609 57.6192 11.7302 58.6579 11.6535C59.2199 11.6126 59.4809 11.8222 59.4909 12.3848C59.501 13.1007 59.4759 13.8167 59.5311 14.5326C59.6465 16.0668 59.7569 17.6009 59.9475 19.1248C60.2035 21.1704 59.8472 23.1648 59.501 25.149C59.2751 26.4428 58.944 27.7366 58.5074 28.9742C58.2816 29.6236 57.7748 30.1964 57.3131 30.7282C55.9583 32.2879 54.2522 32.7482 52.2802 32.2164C52.0594 32.155 51.8436 32.0732 51.6228 32.0118C49.2543 31.393 48.03 29.7822 47.749 27.3837C47.5583 25.7524 47.3475 24.1211 47.2823 22.4847C47.1719 19.6618 47.1569 16.8338 47.1167 14.011C47.1017 12.8194 47.5332 12.3643 48.7024 12.2876C49.4701 12.2365 50.2429 12.2007 51.0106 12.1751C51.9189 12.1495 52.2049 12.4155 52.225 13.3513C52.245 14.3638 52.23 15.3764 52.23 16.3889C52.23 17.064 52.23 17.739 52.23 18.414C52.2149 18.414 52.1949 18.414 52.1798 18.414L52.1748 18.4191Z" fill="white"/>
<path d="M94.1698 22.3568C94.0644 23.6353 94.0343 24.924 93.8286 26.1871C93.5827 27.6701 92.6895 28.7696 91.3748 29.4344C89.3175 30.4725 87.22 30.6669 85.0673 29.639C83.2608 28.7798 82.5433 27.1383 82.0164 25.3842C81.7856 24.612 81.7304 23.7682 81.6852 22.9551C81.5146 20.0607 81.5397 17.1765 82.3978 14.3741C82.6336 13.5968 82.9598 12.8194 83.3963 12.1444C84.2845 10.779 85.549 9.99148 87.215 10.0068C87.4458 10.0068 87.6716 9.99148 87.9024 10.0068C88.9562 10.0631 90.0802 9.87897 90.9784 10.5796C92.3082 11.6177 93.4372 12.8501 94.0695 14.4763C94.2551 14.9519 94.1297 15.3099 93.7333 15.5656C92.7046 16.2355 91.5956 16.7213 90.3612 16.7674C90.1053 16.7776 89.7892 16.5168 89.5885 16.2918C89.4229 16.1026 89.4379 15.7497 89.2773 15.5451C89.0264 15.223 88.7103 14.7525 88.3892 14.7218C87.8874 14.6809 87.4358 15.0184 87.2401 15.6014C86.6429 17.3657 86.2917 19.1811 86.2013 21.0374C86.1612 21.8966 86.1211 22.7659 86.2214 23.6097C86.3218 24.4791 86.8386 25.103 87.7117 25.3791C88.2236 25.5376 88.6802 25.374 88.9261 24.97C89.2171 24.4944 89.3677 23.9217 89.5232 23.3796C89.5433 23.308 89.2522 23.0983 89.0766 23.0318C88.8458 22.9449 88.5899 22.9193 88.339 22.9142C87.9024 22.904 87.7619 22.6688 87.7619 22.2648C87.7619 21.1499 87.7669 20.03 87.7368 18.9152C87.7268 18.4703 87.9175 18.3629 88.2988 18.3936C89.8544 18.5163 91.415 18.6186 92.9655 18.7566C93.7533 18.8231 94.0695 19.2016 94.0745 19.9993C94.0795 20.7817 94.0745 21.559 94.0745 22.3415C94.0996 22.3415 94.1297 22.3415 94.1548 22.3466L94.1698 22.3568Z" fill="white"/>
<path d="M148.976 47.517C149.824 47.7114 150.506 47.8648 151.189 48.0233C152.222 48.2637 153.251 48.504 154.285 48.7495C154.907 48.8978 155.293 49.2916 155.278 49.9461C155.233 52.0275 155.243 54.1191 155.047 56.1902C154.882 57.9084 153.311 59.2738 151.454 59.4375C149.753 59.5858 148.102 59.3147 146.577 58.43C144.57 57.2692 143.742 55.331 143.275 53.2241C142.613 50.2427 142.733 47.2358 143.33 44.2595C143.536 43.2367 143.817 42.2089 144.234 41.2628C145.006 39.5138 146.507 38.8593 148.308 38.9309C150.712 39.028 152.639 40.0355 153.878 42.1986C154.325 42.981 154.786 43.7532 155.213 44.5459C155.484 45.0471 155.358 45.4971 154.806 45.6556C153.853 45.9266 152.89 46.1823 151.916 46.3255C151.304 46.4176 150.852 46.0596 150.702 45.3897C150.632 45.088 150.546 44.7453 150.356 44.5203C150.11 44.2391 149.703 43.8351 149.452 43.8913C149.076 43.9731 148.564 44.3516 148.479 44.6993C148.072 46.3255 147.781 47.9824 147.465 49.6291C147.234 50.8155 147.064 52.0121 147.596 53.1628C147.781 53.5616 148.037 53.9963 148.383 54.2418C149.523 55.0549 150.16 54.6253 150.702 53.4287C150.973 52.8355 150.762 52.4826 150.135 52.2883C148.92 51.9099 148.935 51.9099 148.966 50.6314C148.986 49.6495 148.966 48.6626 148.966 47.517H148.976Z" fill="white"/>
<path d="M59.3253 49.4757C59.4207 46.0391 59.5361 42.6077 59.6063 39.1712C59.6214 38.3121 59.516 37.4478 59.4257 36.5887C59.3303 35.7194 59.6164 35.2642 60.4744 35.2284C63.3045 35.1159 66.1347 35.0443 68.9648 34.9472C69.4114 34.9318 69.6572 35.1415 69.6572 35.5608C69.6572 36.783 69.6372 38.0053 69.587 39.2275C69.5619 39.8156 69.1304 39.9945 68.6185 39.9741C67.911 39.9485 67.2085 39.8616 66.501 39.8514C65.7483 39.8411 65.668 39.9485 65.678 40.6849C65.678 41.1503 65.678 41.6105 65.6931 42.0759C65.7031 42.6129 65.9791 42.889 66.516 42.8685C67.058 42.8481 67.5999 42.8225 68.1368 42.7867C68.6386 42.756 68.9397 42.9657 68.9748 43.4873C69.0551 44.684 69.1554 45.8806 69.1906 47.0824C69.1956 47.2767 68.9347 47.604 68.744 47.65C67.9261 47.8443 67.0881 48.0284 66.2501 48.0745C65.6379 48.1051 65.382 48.2534 65.2916 48.9131C65.0909 50.391 65.2615 50.1354 66.3855 50.1047C67.1332 50.0791 67.8859 50.0535 68.6336 50.0126C69.1053 49.987 69.4565 50.1916 69.4615 50.6621C69.4816 51.8792 69.4766 53.0963 69.3913 54.3083C69.3562 54.8145 68.8494 54.9935 68.3977 55.0191C65.8838 55.1725 63.3748 55.3413 60.8558 55.418C59.6264 55.4538 59.4257 55.1776 59.4157 53.9145C59.4006 52.4366 59.4157 50.9638 59.4157 49.4859C59.3855 49.4859 59.3504 49.4859 59.3203 49.4859L59.3253 49.4757Z" fill="white"/>
<path d="M108.335 13.5968C108.335 14.103 108.345 14.6093 108.335 15.1156C108.31 16.031 107.954 16.3071 107.056 16.1537C106.378 16.0361 105.701 15.9389 105.024 15.8366C104.617 15.7753 104.396 15.9133 104.421 16.3787C104.452 16.9463 104.447 17.514 104.447 18.0816C104.447 18.4856 104.652 18.726 105.034 18.7669C105.591 18.8282 106.153 18.8538 106.71 18.8947C107.487 18.951 107.688 19.1402 107.748 19.9277C107.824 20.9556 107.864 21.9886 107.964 23.0165C108.019 23.5841 107.788 23.8705 107.267 23.9063C106.444 23.9626 105.611 24.0137 104.788 23.9779C104.341 23.9575 104.11 24.0546 104.06 24.5098C104.035 24.7399 103.99 24.9649 103.96 25.195C103.885 25.7115 104.14 25.9365 104.622 25.9621C105.435 26.0081 106.243 26.0541 107.056 26.1002C107.879 26.1462 108.225 26.3917 108.26 27.2252C108.305 28.294 108.25 29.373 108.185 30.4418C108.155 30.9021 107.814 31.1322 107.352 31.1169C104.712 31.035 102.068 30.9686 99.4286 30.851C98.4451 30.8049 98.2143 30.4981 98.2042 29.4855C98.1741 26.1769 98.134 22.8682 98.134 19.5595C98.134 16.9054 98.1791 14.2564 98.2042 11.6023C98.2092 10.8966 98.43 10.6205 99.1426 10.6512C101.24 10.733 103.338 10.8557 105.435 10.9733C106.143 11.0143 106.845 11.1012 107.548 11.1523C108.095 11.1881 108.396 11.4182 108.361 12.0217C108.335 12.5484 108.355 13.0751 108.355 13.6019C108.35 13.6019 108.34 13.6019 108.335 13.6019V13.5968Z" fill="white"/>
<path d="M79.3569 34.4051C81.1332 34.4051 82.478 35.0699 83.582 36.2665C84.0537 36.7779 84.1942 37.3404 83.9031 38.0053C83.5167 38.89 83.1655 39.79 82.7841 40.6798C82.5483 41.2321 82.3175 41.2986 81.8257 40.9508C81.4694 40.6951 81.1433 40.3985 80.792 40.1377C80.2752 39.7542 79.7633 39.7695 79.2465 40.1735C78.7347 40.5775 78.6494 40.9099 79.111 41.3753C79.8135 42.0912 80.5512 42.7816 81.3139 43.426C82.6587 44.5663 83.5218 45.9982 83.9282 47.7011C84.5806 50.4268 82.9046 53.3469 80.1497 54.385C77.8114 55.2646 75.6185 55.0805 73.6365 53.444C72.7433 52.7025 72.663 52.3139 73.1447 51.2553C73.4759 50.5291 73.787 49.7876 74.1834 49.1023C74.63 48.3353 74.9361 48.325 75.5985 48.908C75.8644 49.1433 76.1304 49.3836 76.4164 49.5882C76.8379 49.8899 77.2744 50.1456 77.7612 49.6904C78.278 49.2149 78.4687 48.5296 78.1576 47.9875C77.8666 47.4813 77.5053 47.0108 77.1691 46.5301C76.3311 45.3488 75.4178 44.2186 74.6651 42.9862C73.5261 41.1094 73.516 39.1252 74.635 37.2331C75.7139 35.4074 77.3447 34.4255 79.3469 34.4L79.3569 34.4051Z" fill="white"/>
<path d="M95.7755 46.6528C95.7755 48.4631 95.7755 50.2785 95.7755 52.0889C95.7755 52.319 95.7806 52.5542 95.7705 52.7843C95.7003 54.3032 95.344 54.6611 93.8336 54.6816C93.2315 54.6918 92.6193 54.6969 92.0272 54.6151C90.868 54.4515 90.5017 53.9912 90.5017 52.7997C90.4967 49.2609 90.4917 45.717 90.4816 42.1782C90.4816 41.6105 90.4515 41.0378 90.4716 40.4701C90.4967 39.8514 90.2257 39.5854 89.6236 39.5803C89.0616 39.5701 88.4995 39.5138 87.9426 39.4832C87.4809 39.4576 87.2099 39.2888 87.225 38.7519C87.2551 37.678 87.225 36.6041 87.2501 35.525C87.2702 34.6096 87.4207 34.4307 88.3089 34.4409C91.4702 34.4716 94.6365 34.5329 97.7978 34.5738C98.2394 34.579 98.43 34.7886 98.4451 35.2335C98.4752 36.0978 98.5404 36.9569 98.5655 37.8212C98.5956 38.7672 98.1942 39.253 97.2709 39.3246C95.2286 39.478 95.5899 39.3297 95.61 41.3395C95.62 42.2242 95.6752 43.1089 95.6902 43.9936C95.7053 44.8783 95.6902 45.763 95.6902 46.6477H95.7655L95.7755 46.6528Z" fill="white"/>
<path d="M102.871 44.5715C102.871 41.3651 102.886 38.1638 102.856 34.9574C102.851 34.3488 103.057 34.0625 103.624 34.1187C104.968 34.2568 106.313 34.3949 107.648 34.6148C108.295 34.717 108.345 35.3102 108.33 35.8625C108.28 37.591 108.23 39.3195 108.185 41.048C108.115 43.6612 108.044 46.2744 107.974 48.8927C107.944 49.941 108.049 50.0382 109.053 50.1609C109.816 50.253 110.573 50.3859 111.331 50.5342C111.768 50.6212 111.998 50.8973 111.968 51.3934C111.903 52.3394 111.893 53.2906 111.823 54.2316C111.758 55.1111 111.271 55.51 110.277 55.4742C108.928 55.418 107.578 55.3157 106.223 55.2492C105.37 55.2083 104.517 55.2032 103.664 55.1521C102.811 55.1009 102.73 55.0242 102.725 54.1855C102.715 50.9791 102.725 47.7779 102.725 44.5715C102.776 44.5715 102.826 44.5715 102.871 44.5715Z" fill="white"/>
<path d="M12.7088 23.7427C14.9869 23.7427 14.6808 23.9626 15.3332 21.8045C15.4887 21.2829 15.6443 20.7562 15.855 20.255C16.0658 19.7487 16.4321 19.3447 17.0242 19.3499C17.6063 19.3499 18.0127 19.7283 18.2135 20.2397C18.5296 21.0579 18.7704 21.9119 19.0364 22.7506C19.3676 23.7887 19.3676 23.7836 20.4264 23.7478C21.0937 23.7273 21.7611 23.712 22.4235 23.712C23.1511 23.712 23.7934 23.8654 24.0794 24.6683C24.3353 25.3842 24.1798 25.8803 23.407 26.5246C22.7948 27.0309 22.1676 27.5218 21.5102 27.9667C20.9482 28.3503 20.8278 28.7747 21.0737 29.414C21.3898 30.2373 21.6307 31.0913 21.8765 31.9402C22.0873 32.6817 21.9066 33.1573 21.3095 33.592C20.7676 33.9909 20.2859 33.7965 19.8242 33.4488C19.0866 32.8965 18.3439 32.3544 17.6264 31.7817C17.2651 31.4953 16.9891 31.4237 16.5977 31.7612C15.8651 32.3851 15.0873 32.9527 14.3195 33.5306C13.8378 33.8937 13.321 34.0522 12.764 33.6738C12.2421 33.3158 12.0163 32.7789 12.212 32.0681C12.488 31.076 12.7891 30.089 13.1453 29.1225C13.3009 28.698 13.2909 28.4423 12.9095 28.1662C12.1819 27.6394 11.4593 27.0974 10.7919 26.4939C10.4658 26.2024 10.1697 25.7882 10.0443 25.374C9.8285 24.6478 10.4306 23.9114 11.2235 23.8245C11.7203 23.7734 12.222 23.7682 12.7188 23.7427H12.7088Z" fill="#FF0000"/>
<path d="M115.742 54.0475C115.742 51.6695 115.787 49.2864 115.727 46.9085C115.667 44.6175 115.456 42.3265 115.401 40.0355C115.371 38.8593 115.526 37.6831 115.621 36.5069C115.667 35.9393 116.028 35.6784 116.565 35.7398C117.93 35.8881 119.29 36.062 120.654 36.2307C121.166 36.2921 121.362 36.6194 121.342 37.1103C121.297 38.1229 121.211 39.1303 121.211 40.1428C121.216 42.2498 121.322 44.3567 121.292 46.4585C121.257 48.7341 121.126 51.0047 121.016 53.2804C120.981 53.9963 120.9 54.7071 120.83 55.418C120.775 55.9652 120.519 56.2669 119.927 56.2004C118.873 56.0828 117.809 56.0265 116.766 55.8578C115.712 55.6839 115.611 55.4998 115.621 54.431C115.621 54.3032 115.621 54.1804 115.621 54.0526C115.662 54.0526 115.702 54.0526 115.742 54.0526V54.0475Z" fill="white"/>
</svg>
