<svg width="16" height="16" viewBox="0 0 16 16" fill="none" xmlns="http://www.w3.org/2000/svg">
<path d="M3.36275 5.03132C5.77038 5.03132 5.44689 5.25815 6.1363 3.03208C6.3007 2.49402 6.4651 1.95069 6.68783 1.43373C6.91056 0.911504 7.2977 0.494774 7.92347 0.50005C8.53864 0.50005 8.96819 0.890404 9.18032 1.41791C9.51442 2.26192 9.76897 3.14285 10.05 4.00796C10.4 5.0788 10.4 5.07352 11.519 5.0366C12.2243 5.0155 12.9297 4.99967 13.6297 4.99967C14.3986 4.99967 15.0774 5.15793 15.3797 5.98611C15.6502 6.72462 15.4858 7.2363 14.6691 7.90096C14.0221 8.42319 13.3592 8.92959 12.6645 9.38852C12.0705 9.78415 11.9433 10.222 12.2031 10.8814C12.5372 11.7306 12.7918 12.6116 13.0516 13.4872C13.2744 14.2521 13.0834 14.7427 12.4524 15.1911C11.8796 15.6025 11.3705 15.4021 10.8826 15.0434C10.1031 14.4737 9.3182 13.9145 8.55985 13.3237C8.17802 13.0283 7.88635 12.9545 7.4727 13.3026C6.69844 13.9462 5.87645 14.5317 5.06506 15.1278C4.55596 15.5023 4.00973 15.6658 3.42108 15.2755C2.86955 14.9062 2.63091 14.3524 2.83773 13.6191C3.12941 12.5958 3.4476 11.5777 3.82412 10.5807C3.98852 10.1429 3.97791 9.8791 3.57487 9.59425C2.80592 9.05092 2.04226 8.49176 1.33694 7.8693C0.992233 7.56863 0.679347 7.14135 0.546767 6.71407C0.318731 5.96501 0.955111 5.2054 1.79301 5.11573C2.31802 5.06297 2.84834 5.0577 3.37335 5.03132H3.36275Z" fill="#FF0000"/>
</svg>
